<svg height="512" viewBox="0 0 58 60" width="512" xmlns="http://www.w3.org/2000/svg"><g id="011---Astronaut" transform="translate(-1)"><path id="Shape" d="m56.22 40.81c4.784006-12.8083552-.3820004-27.198769-12.22-34.04.1376985-.2359689.1728557-.51800201.0973011-.78055427s-.2552415-.48275972-.4973011-.60944573c-19.87-10.53-43.97 4.67-42.54 27.49.47428426 7.2849958 3.68994689 14.1200654 9 19.13h39.94c2.9362763-2.7883673 5.2560659-6.1607488 6.81-9.9.0936734-.2492527.0840711-.5255717-.0266791-.7677204s-.3135015-.4301283-.5633209-.5222796zm-35.58-34.09c2.9876061-1.14431682 6.1607507-1.72741603 9.36-1.72.5522847 0 1 .44771525 1 1s-.4477153 1-1 1c-2.9508025.02086224-5.8750887.55901213-8.64 1.59-.5163862.1988225-1.0961775-.05861377-1.295-.57500001-.1988225-.51638623.0586138-1.09617747.575-1.29499999zm-4.08 4.38c-7.07810807 4.768555-11.08233798 12.9446515-10.51 21.46.01639941.265334-.07352614.5262777-.24990776.7251761-.17638162.1988985-.42470095.3193798-.69009224.3348239-.26533397.0163994-.52627771-.0735261-.72517614-.2499078-.19889842-.1763816-.31937976-.4247009-.33482386-.6900922-.60257591-9.2202272 3.73352996-18.0675582 11.39-23.24.2965304-.20006873.6772713-.22674275.9988011-.06997423.3215298.15676853.5350006.47316274.56.83000003.0249994.3568372-.1422707.6999055-.4388011.8999742zm35 28.45c-.004469.0599168-.004469.1200832 0 .18-3.3183187-.9284329-6.444088-2.4422129-9.23-4.47-1.7923917 5.2409216-6.7087037 8.7705682-12.2476042 8.7931188s-10.4837896-3.4669481-12.318796-8.6931015c-1.8350064-5.2261533-.1570775-11.0410552 4.1800865-14.4861873 4.337164-3.4451322 10.3809203-3.7637836 15.0563137-.79383.1862478-2.6325767.9803773-5.1861136 2.32-7.46l5 4.26c.3247364.2738455.4410265.7229658.29 1.12l-.06.2c-.4360538 1.3147136.0846735 2.7570455 1.26 3.49l5 3.12-3.18 1.27c-.247471.0997768-.4448032.2943172-.5480958.5403415-.1032926.2460242-.1039782.5231262-.0019042.7696585.1829594.4252664.6338983.6693526 1.09.59.36 1.78 1.34 6.08 3 8.58.5255237.9043614.6625998 1.982934.38 2.99zm2.75.71c-.11.23.27.23-.89 0 .5074504-1.6055067.2959744-3.3520061-.58-4.79-1.57-2.36-2.51-6.84-2.77-8.2l1.48-.59c.6982451-.2798103 1.1804361-.9277438 1.2479684-1.6769296.0675322-.7491858-.291017-1.4729043-.9279684-1.8730704l-5-3.13c-.3957507-.2490921-.5660372-.739185-.41-1.18l.06-.2c.3926922-1.1604151.0403719-2.4430191-.89-3.24l-5.11-4.38s-.07 0-.1-.06c.6696699-.95636122 1.4047614-1.86520171 2.2-2.72.0534468.06683082.1176602.12428486.19.17 11.47 6.11 16.02 20.11 11.49 31.87z"/><path id="Shape" d="m36.31 22c-3.898455-2.7283217-9.1091926-2.6407105-12.9137241.2171262-3.8045316 2.8578367-5.3402149 7.8379108-3.8058702 12.342073s5.7908189 7.5111355 10.548782 7.4521549c4.757963-.0589806 8.9385908-3.1705417 10.3608123-7.7113541 1.4329284-4.5749969-.2621963-9.5511387-4.19-12.3zm-1.31 9c0 .5522847-.4477153 1-1 1s-1-.4477153-1-1c0-1.6568542-1.3431458-3-3-3-.5522847 0-1-.4477153-1-1s.4477153-1 1-1c1.3260824 0 2.597852.5267842 3.5355339 1.4644661s1.4644661 2.2094515 1.4644661 3.5355339zm-13 1c-.5522847 0-1-.4477153-1-1 0-4.9705627 4.0294373-9 9-9 .5522847 0 1 .4477153 1 1s-.4477153 1-1 1c-3.8659932 0-7 3.1340068-7 7 0 .5522847-.4477153 1-1 1zm3-1c0-.5522847.4477153-1 1-1s1 .4477153 1 1c0 1.6568542 1.3431458 3 3 3 .5522847 0 1 .4477153 1 1s-.4477153 1-1 1c-2.7614237 0-5-2.2385763-5-5zm5 9c-.5522847 0-1-.4477153-1-1s.4477153-1 1-1c3.8659932 0 7-3.1340068 7-7 0-.5522847.4477153-1 1-1s1 .4477153 1 1c0 2.3869484-.9482116 4.6761336-2.636039 6.363961s-3.9770126 2.636039-6.363961 2.636039z"/><path id="Shape" d="m50.61 54h-41.22c-.3313201-.0176044-.64979914.1302685-.85015156.3947337-.20035241.2644652-.2564878.6110833-.14984844.9252663l1.33 4c.14299392.4253709.5518476.7033915 1 .68h3.28v-3c0-.5522847.4477153-1 1-1s1 .4477153 1 1v3h3v-3c0-.5522847.4477153-1 1-1s1 .4477153 1 1v3h3v-3c0-.5522847.4477153-1 1-1s1 .4477153 1 1v3h23.28c.4299159.0011098.8124279-.2726883.95-.68l1.33-4c.1032336-.3056381.0526799-.6423061-.1357655-.9041461-.1884454-.2618399-.4916339-.4166874-.8142345-.4158539z"/><path id="Shape" d="m54.5 0-1.44 2.89-3.06.55 2.17 2.33-.45 3.23 2.78-1.45 2.78 1.45-.45-3.23 2.17-2.33-3.06-.55z"/></g></svg>